HIERARCHY
ROOT Hip
{
	OFFSET	0.0000	0.0000	0.0000
	CHANNELS 6 Xposition Yposition Zposition Xrotation Yrotation Zrotation
	JOINT LowerSpine
	{
		OFFSET	0.0000	10.0859	-5.4579
		CHANNELS 3 Xrotation Yrotation Zrotation
		JOINT MiddleSpine
		{
			OFFSET	0.0000	9.2041	0.4808
			CHANNELS 3 Xrotation Yrotation Zrotation
			JOINT Chest
			{
				OFFSET	0.0000	11.3891	-2.5351
				CHANNELS 3 Xrotation Yrotation Zrotation
				JOINT Neck
				{
					OFFSET	0.0000	25.6648	-0.5337
					CHANNELS 3 Xrotation Yrotation Zrotation
					JOINT Head
					{
						OFFSET	0.0000	14.4932	3.9421
						CHANNELS 3 Xrotation Yrotation Zrotation
						End Site
						{
							OFFSET	0.0001	20.2508	0.6045
						}
					}
				}
				JOINT LClavicle
				{
					OFFSET	2.5911	24.7678	8.4856
					CHANNELS 3 Xrotation Yrotation Zrotation
					JOINT LShoulder
					{
						OFFSET	15.1374	3.5526	-5.7484
						CHANNELS 3 Xrotation Yrotation Zrotation
						JOINT LForearm
						{
							OFFSET	32.1549	-0.1142	-0.2786
							CHANNELS 3 Xrotation Yrotation Zrotation
							JOINT LHand
							{
								OFFSET	26.8240	0.0778	-0.1606
								CHANNELS 3 Xrotation Yrotation Zrotation
								JOINT LFinger1
								{
									OFFSET	10.3962	0.9092	2.8875
									CHANNELS 3 Xrotation Yrotation Zrotation
									JOINT LFinger11
									{
										OFFSET	3.8887	-0.9483	0.6852
										CHANNELS 3 Xrotation Yrotation Zrotation
										JOINT LFinger12
										{
											OFFSET	2.6547	-0.6476	0.4680
											CHANNELS 3 Xrotation Yrotation Zrotation
											End Site
											{
												OFFSET	1.8891	-0.5639	0.3064
											}
										}
									}
								}
								JOINT LFinger2
								{
									OFFSET	10.5514	1.0500	0.2514
									CHANNELS 3 Xrotation Yrotation Zrotation
									JOINT LFinger21
									{
										OFFSET	4.8082	0.0134	-0.0284
										CHANNELS 3 Xrotation Yrotation Zrotation
										JOINT LFinger22
										{
											OFFSET	2.6650	0.0081	-0.0162
											CHANNELS 3 Xrotation Yrotation Zrotation
											End Site
											{
												OFFSET	2.3938	-0.1690	0.0032
											}
										}
									}
								}
								JOINT LFinger3
								{
									OFFSET	9.9996	0.7006	-2.3657
									CHANNELS 3 Xrotation Yrotation Zrotation
									JOINT LFinger31
									{
										OFFSET	4.3629	-0.2209	-0.2731
										CHANNELS 3 Xrotation Yrotation Zrotation
										JOINT LFinger32
										{
											OFFSET	2.4861	-0.1251	-0.1562
											CHANNELS 3 Xrotation Yrotation Zrotation
											End Site
											{
												OFFSET	2.1982	-0.2703	-0.1039
											}
										}
									}
								}
								JOINT LFinger4
								{
									OFFSET	9.2792	-0.7052	-4.0856
									CHANNELS 3 Xrotation Yrotation Zrotation
									JOINT LFinger41
									{
										OFFSET	2.6836	-0.5596	-0.7408
										CHANNELS 3 Xrotation Yrotation Zrotation
										JOINT LFinger42
										{
											OFFSET	1.9679	-0.4099	-0.5436
											CHANNELS 3 Xrotation Yrotation Zrotation
											End Site
											{
												OFFSET	1.7467	-0.4799	-0.4007
											}
										}
									}
								}
								JOINT LFinger0
								{
									OFFSET	2.1505	-1.6278	1.6303
									CHANNELS 3 Xrotation Yrotation Zrotation
									JOINT LFinger01
									{
										OFFSET	4.0040	-1.3151	3.0189
										CHANNELS 3 Xrotation Yrotation Zrotation
										JOINT LFinger02
										{
											OFFSET	2.6366	-0.9434	1.8996
											CHANNELS 3 Xrotation Yrotation Zrotation
											End Site
											{
												OFFSET	1.9389	-0.6674	1.3277
											}
										}
									}
								}
							}
						}
					}
				}
				JOINT RClavicle
				{
					OFFSET	-2.5911	24.7678	8.4856
					CHANNELS 3 Xrotation Yrotation Zrotation
					JOINT RShoulder
					{
						OFFSET	-15.1401	3.5532	-5.7494
						CHANNELS 3 Xrotation Yrotation Zrotation
						JOINT RForearm
						{
							OFFSET	-32.1549	-0.1142	-0.2786
							CHANNELS 3 Xrotation Yrotation Zrotation
							JOINT RHand
							{
								OFFSET	-26.8240	0.0779	-0.1606
								CHANNELS 3 Xrotation Yrotation Zrotation
								JOINT RFinger1
								{
									OFFSET	-10.3962	0.9092	2.8875
									CHANNELS 3 Xrotation Yrotation Zrotation
									JOINT RFinger11
									{
										OFFSET	-3.8887	-0.9483	0.6852
										CHANNELS 3 Xrotation Yrotation Zrotation
										JOINT RFinger12
										{
											OFFSET	-2.6547	-0.6476	0.4680
											CHANNELS 3 Xrotation Yrotation Zrotation
											End Site
											{
												OFFSET	-1.8891	-0.5639	0.3064
											}
										}
									}
								}
								JOINT RFinger2
								{
									OFFSET	-10.5514	1.0500	0.2514
									CHANNELS 3 Xrotation Yrotation Zrotation
									JOINT RFinger21
									{
										OFFSET	-4.8082	0.0134	-0.0284
										CHANNELS 3 Xrotation Yrotation Zrotation
										JOINT RFinger22
										{
											OFFSET	-2.6650	0.0081	-0.0162
											CHANNELS 3 Xrotation Yrotation Zrotation
											End Site
											{
												OFFSET	-2.3938	-0.1690	0.0032
											}
										}
									}
								}
								JOINT RFinger3
								{
									OFFSET	-9.9996	0.7006	-2.3657
									CHANNELS 3 Xrotation Yrotation Zrotation
									JOINT RFinger31
									{
										OFFSET	-4.3629	-0.2209	-0.2731
										CHANNELS 3 Xrotation Yrotation Zrotation
										JOINT RFinger32
										{
											OFFSET	-2.4861	-0.1251	-0.1562
											CHANNELS 3 Xrotation Yrotation Zrotation
											End Site
											{
												OFFSET	-2.1982	-0.2703	-0.1039
											}
										}
									}
								}
								JOINT RFinger4
								{
									OFFSET	-9.2792	-0.7052	-4.0856
									CHANNELS 3 Xrotation Yrotation Zrotation
									JOINT RFinger41
									{
										OFFSET	-2.6836	-0.5596	-0.7408
										CHANNELS 3 Xrotation Yrotation Zrotation
										JOINT RFinger42
										{
											OFFSET	-1.9679	-0.4099	-0.5436
											CHANNELS 3 Xrotation Yrotation Zrotation
											End Site
											{
												OFFSET	-1.7467	-0.4799	-0.4007
											}
										}
									}
								}
								JOINT RFinger0
								{
									OFFSET	-2.1505	-1.6278	1.6303
									CHANNELS 3 Xrotation Yrotation Zrotation
									JOINT RFinger01
									{
										OFFSET	-4.0040	-1.3151	3.0189
										CHANNELS 3 Xrotation Yrotation Zrotation
										JOINT RFinger02
										{
											OFFSET	-2.6366	-0.9434	1.8996
											CHANNELS 3 Xrotation Yrotation Zrotation
											End Site
											{
												OFFSET	-1.9389	-0.6674	1.3277
											}
										}
									}
								}
							}
						}
					}
				}
			}
		}
	}
	JOINT RThigh
	{
		OFFSET	-10.7894	4.5591	-0.8894
		CHANNELS 3 Xrotation Yrotation Zrotation
		JOINT RShin
		{
			OFFSET	-0.8633	-46.9290	0.0000
			CHANNELS 3 Xrotation Yrotation Zrotation
			JOINT RFoot
			{
				OFFSET	0.0000	-46.0814	0.0000
				CHANNELS 3 Xrotation Yrotation Zrotation
				JOINT RToe
				{
					OFFSET	0.0000	-5.0648	10.5911
					CHANNELS 3 Xrotation Yrotation Zrotation
					End Site
					{
						OFFSET	0.0000	0.0000	7.1051
					}
				}
			}
		}
	}
	JOINT LThigh
	{
		OFFSET	10.7893	4.5594	-0.8894
		CHANNELS 3 Xrotation Yrotation Zrotation
		JOINT LShin
		{
			OFFSET	0.8634	-46.9293	0.0000
			CHANNELS 3 Xrotation Yrotation Zrotation
			JOINT LFoot
			{
				OFFSET	0.0000	-46.0814	0.0000
				CHANNELS 3 Xrotation Yrotation Zrotation
				JOINT LToe
				{
					OFFSET	0.0000	-5.0648	10.5911
					CHANNELS 3 Xrotation Yrotation Zrotation
					End Site
					{
						OFFSET	0.0000	0.0000	7.1051
					}
				}
			}
		}
	}
}
MOTION
Frames:	4
Frame Time: 0.0333333000
	-0.9217	96.7687	4.2172	-5.144885	0.714109	-1.775965	0.000000	0.000000	0.000000	1.835172	-0.746002	0.357743	6.139572	-2.440372	1.284243	0.000000	0.000000	0.000000	0.000000	0.000000	0.000000	0.000000	0.000000	-15.148870	-2.489114	-3.859408	-61.052910	-1.773805	-20.912930	-10.326930	0.000000	0.000000	0.000000	0.000000	0.000000	0.000000	0.000000	0.000000	0.000000	0.000000	0.000000	0.000000	0.000000	0.000000	0.000000	0.000000	0.000000	0.000000	0.000000	0.000000	0.000000	0.000000	0.000000	0.000000	0.000000	0.000000	0.000000	0.000000	0.000000	0.000000	0.000000	0.000000	0.000000	0.000000	0.000000	0.000000	0.000000	0.000000	0.000000	0.000000	0.000000	0.000000	0.000000	0.000000	0.000000	0.000000	0.000000	0.000000	0.000000	0.000000	15.429910	-2.626462	1.676124	62.451420	-2.325266	18.011710	9.597574	0.000000	0.000000	0.000000	0.000000	0.000000	0.000000	0.000000	0.000000	0.000000	0.000000	0.000000	0.000000	0.000000	0.000000	0.000000	0.000000	0.000000	0.000000	0.000000	0.000000	0.000000	0.000000	0.000000	0.000000	0.000000	0.000000	0.000000	0.000000	0.000000	0.000000	0.000000	0.000000	0.000000	0.000000	0.000000	0.000000	0.000000	0.000000	0.000000	0.000000	0.000000	0.000000	0.000000	0.000000	0.000000	0.000000	0.000000	0.000000	-3.180272	-1.004244	0.975827	27.372750	-0.895040	0.891966	-0.812170	-0.501794	-0.244535	-0.554596	0.000000	0.000000	-2.034271	0.726792	5.481757	23.681680	0.707354	-1.262878	-2.681428	-0.123965	-0.063288	-1.094804	0.000000	0.000000
	-0.9214	96.7836	4.2287	-5.197659	0.659360	-1.727583	0.000000	0.000000	0.000000	1.839269	-0.746992	0.355461	6.159052	-2.448397	1.274860	0.000000	0.000000	0.000000	0.000000	0.000000	0.000000	0.000000	0.000000	-15.146480	-2.570973	-3.995795	-61.047400	-1.712162	-20.303340	-10.283800	0.000000	0.000000	0.000000	0.000000	0.000000	0.000000	0.000000	0.000000	0.000000	0.000000	0.000000	0.000000	0.000000	0.000000	0.000000	0.000000	0.000000	0.000000	0.000000	0.000000	0.000000	0.000000	0.000000	0.000000	0.000000	0.000000	0.000000	0.000000	0.000000	0.000000	0.000000	0.000000	0.000000	0.000000	0.000000	0.000000	0.000000	0.000000	0.000000	0.000000	0.000000	0.000000	0.000000	0.000000	0.000000	0.000000	0.000000	0.000000	0.000000	0.000000	15.430250	-2.599768	1.590627	62.555480	-2.304665	18.153850	9.313820	0.000000	0.000000	0.000000	0.000000	0.000000	0.000000	0.000000	0.000000	0.000000	0.000000	0.000000	0.000000	0.000000	0.000000	0.000000	0.000000	0.000000	0.000000	0.000000	0.000000	0.000000	0.000000	0.000000	0.000000	0.000000	0.000000	0.000000	0.000000	0.000000	0.000000	0.000000	0.000000	0.000000	0.000000	0.000000	0.000000	0.000000	0.000000	0.000000	0.000000	0.000000	0.000000	0.000000	0.000000	0.000000	0.000000	0.000000	0.000000	-3.149770	-1.027352	0.905781	27.404490	-1.028364	0.934043	-0.770248	-0.522087	-0.254352	-0.589948	0.000000	0.000000	-1.892176	0.729391	5.351350	23.528840	0.739327	-1.083961	-2.514573	-0.221455	-0.112141	-1.332060	0.000000	0.000000
	-0.9080	96.7769	4.2466	-5.223063	0.758942	-1.678887	0.000000	0.000000	0.000000	1.848755	-0.753766	0.351510	6.175274	-2.457827	1.267944	0.000000	0.000000	0.000000	0.000000	0.000000	0.000000	0.000000	0.000000	-15.145870	-2.621268	-4.085484	-60.988240	-1.724774	-20.079550	-10.463190	0.000000	0.000000	0.000000	0.000000	0.000000	0.000000	0.000000	0.000000	0.000000	0.000000	0.000000	0.000000	0.000000	0.000000	0.000000	0.000000	0.000000	0.000000	0.000000	0.000000	0.000000	0.000000	0.000000	0.000000	0.000000	0.000000	0.000000	0.000000	0.000000	0.000000	0.000000	0.000000	0.000000	0.000000	0.000000	0.000000	0.000000	0.000000	0.000000	0.000000	0.000000	0.000000	0.000000	0.000000	0.000000	0.000000	0.000000	0.000000	0.000000	0.000000	15.431450	-2.259531	1.000839	62.399250	-2.518546	19.360280	9.876191	0.000000	0.000000	0.000000	0.000000	0.000000	0.000000	0.000000	0.000000	0.000000	0.000000	0.000000	0.000000	0.000000	0.000000	0.000000	0.000000	0.000000	0.000000	0.000000	0.000000	0.000000	0.000000	0.000000	0.000000	0.000000	0.000000	0.000000	0.000000	0.000000	0.000000	0.000000	0.000000	0.000000	0.000000	0.000000	0.000000	0.000000	0.000000	0.000000	0.000000	0.000000	0.000000	0.000000	0.000000	0.000000	0.000000	0.000000	0.000000	-3.070831	-1.247104	0.829459	27.366740	-1.427106	0.917344	-0.883206	-0.179252	-0.086956	-0.507330	0.000000	0.000000	-1.875568	0.722507	5.248123	23.524700	0.764682	-0.921158	-2.443597	-0.384768	-0.193684	-1.493290	0.000000	0.000000
	-0.8856	96.7495	4.2422	-5.211237	1.092529	-1.659846	0.000000	0.000000	0.000000	1.855268	-0.763928	0.350681	6.200706	-2.490585	1.264120	0.000000	0.000000	0.000000	0.000000	0.000000	0.000000	0.000000	0.000000	-15.144660	-2.775983	-4.348094	-60.923630	-1.756630	-19.936050	-10.700010	0.000000	0.000000	0.000000	0.000000	0.000000	0.000000	0.000000	0.000000	0.000000	0.000000	0.000000	0.000000	0.000000	0.000000	0.000000	0.000000	0.000000	0.000000	0.000000	0.000000	0.000000	0.000000	0.000000	0.000000	0.000000	0.000000	0.000000	0.000000	0.000000	0.000000	0.000000	0.000000	0.000000	0.000000	0.000000	0.000000	0.000000	0.000000	0.000000	0.000000	0.000000	0.000000	0.000000	0.000000	0.000000	0.000000	0.000000	0.000000	0.000000	0.000000	15.431800	-1.752293	0.136747	62.086340	-2.884264	21.043680	10.928030	0.000000	0.000000	0.000000	0.000000	0.000000	0.000000	0.000000	0.000000	0.000000	0.000000	0.000000	0.000000	0.000000	0.000000	0.000000	0.000000	0.000000	0.000000	0.000000	0.000000	0.000000	0.000000	0.000000	0.000000	0.000000	0.000000	0.000000	0.000000	0.000000	0.000000	0.000000	0.000000	0.000000	0.000000	0.000000	0.000000	0.000000	0.000000	0.000000	0.000000	0.000000	0.000000	0.000000	0.000000	0.000000	0.000000	0.000000	0.000000	-2.986523	-1.636504	0.746380	27.295050	-1.927205	0.936514	-1.110504	0.370584	0.182122	-0.321100	0.000000	0.000000	-2.116079	0.700733	5.206702	23.862600	0.790374	-0.770280	-2.444901	-0.648733	-0.327230	-1.612334	0.000000	0.000000
